<?xml version="1.0" encoding="iso-8859-1"?>
<!-- Generator: Adobe Illustrator 19.0.0, SVG Export Plug-In . SVG Version: 6.00 Build 0)  -->
<svg version="1.1" id="Capa_1" xmlns="http://www.w3.org/2000/svg" xmlns:xlink="http://www.w3.org/1999/xlink" x="0px" y="0px"
	 viewBox="0 0 448 448" style="enable-background:new 0 0 448 448;" xml:space="preserve">
<g>
	<g>
		<path d="M322.368,220.848h0.288l-34.768-19.824l0.112-0.032c0,0-32-17.504-32-51.008c0-25.76,4.832-48.416,7.888-60.24
			C269.008,73.744,272,57.888,272,48c0-26.512-21.488-48-48-48c-26.512,0-48,21.488-48,48c0,9.888,2.992,25.744,8.112,41.76
			C187.168,101.584,192,124.24,192,150c0,33.504-32,51.008-32,51.008l0.112,0.032l-34.768,19.824h0.288
			C117.408,226.64,112,236.176,112,247.008V304h224v-56.992C336,236.176,330.592,226.64,322.368,220.848z M224,32
			c8.832,0,16,7.168,16,16c0,8.832-7.168,16-16,16c-8.832,0-16-7.168-16-16C208,39.168,215.168,32,224,32z M304,272H144v-32h160V272
			z"/>
	</g>
</g>
<g>
	<g>
		<path d="M176,320c0,70.688,57.312,128,128,128h32V320H176z"/>
	</g>
</g>
<g>
	<g>
		<path d="M112,320v64.816C112.512,419.792,140.912,448,176,448V320H112z"/>
	</g>
</g>
<g>
</g>
<g>
</g>
<g>
</g>
<g>
</g>
<g>
</g>
<g>
</g>
<g>
</g>
<g>
</g>
<g>
</g>
<g>
</g>
<g>
</g>
<g>
</g>
<g>
</g>
<g>
</g>
<g>
</g>
</svg>
