<?xml version="1.0" encoding="iso-8859-1"?>
<!-- Generator: Adobe Illustrator 19.0.0, SVG Export Plug-In . SVG Version: 6.00 Build 0)  -->
<svg version="1.1" id="Capa_1" xmlns="http://www.w3.org/2000/svg" xmlns:xlink="http://www.w3.org/1999/xlink" x="0px" y="0px"
	 viewBox="0 0 447.907 447.907" style="enable-background:new 0 0 447.907 447.907;" xml:space="preserve">
<g>
	<g>
		<path d="M158.259,240.113l-11.168-0.032c-4.8,14.88-10.448,36.32-14.688,63.456h25.808c8.832,0,16-7.168,16-16v-31.424
			C174.211,247.297,167.075,240.145,158.259,240.113z"/>
	</g>
</g>
<g>
	<g>
		<polygon points="367.555,128.305 335.555,160.305 367.555,160.305 399.555,128.305 		"/>
	</g>
</g>
<g>
	<g>
		<polygon points="431.907,128.305 431.555,128.305 399.555,160.305 431.907,160.305 447.907,143.953 		"/>
	</g>
</g>
<g>
	<g>
		<polygon points="303.907,128.305 303.907,127.953 271.907,95.953 255.907,95.953 255.907,191.953 271.907,191.953 
			335.555,128.305 		"/>
	</g>
</g>
<g>
	<g>
		<path d="M207.907,63.953H82.851c-36.352,0-70.464,22.8-79.888,57.92c-10.336,38.592,7.408,73.936,37.12,91.04
			c7.504,4.32,10.864,13.264,7.04,21.04c-11.488,23.328-26.176,61.936-31.168,114.016c-1.84,19.184,12.832,35.984,32.128,35.984
			h60.384c12.8,0,24.624-9.232,25.664-22c0.608-7.424-2.176-14.192-6.944-18.976l-3.232-3.232
			c-7.12-7.12-10.384-17.184-9.072-27.168c5.472-41.728,14.592-71.744,20.8-88.624h72.224c17.68,0,32-14.32,32-32v-96
			C239.907,78.273,225.587,63.953,207.907,63.953z"/>
	</g>
</g>
<g>
</g>
<g>
</g>
<g>
</g>
<g>
</g>
<g>
</g>
<g>
</g>
<g>
</g>
<g>
</g>
<g>
</g>
<g>
</g>
<g>
</g>
<g>
</g>
<g>
</g>
<g>
</g>
<g>
</g>
</svg>
